<?xml version="1.0" encoding="iso-8859-1"?>
<!-- Generator: Adobe Illustrator 19.0.0, SVG Export Plug-In . SVG Version: 6.00 Build 0)  -->
<svg version="1.1" id="Capa_1" xmlns="http://www.w3.org/2000/svg" xmlns:xlink="http://www.w3.org/1999/xlink" x="0px" y="0px"
	 viewBox="0 0 464 464" style="enable-background:new 0 0 464 464;" xml:space="preserve">
<g>
	<g>
		<path d="M424,320H240v-16h152h32c4.424,0,8-3.576,8-8s-3.576-8-8-8h-24.408C395.504,201.76,326.24,132.496,240,128.408V112h24
			c4.424,0,8-3.576,8-8s-3.576-8-8-8h-64c-4.424,0-8,3.576-8,8s3.576,8,8,8h24v16.408C137.76,132.496,68.496,201.76,64.408,288H40
			c-4.424,0-8,3.576-8,8s3.576,8,8,8h32h152v16H40c-22.056,0-40,17.944-40,40c0,4.424,3.576,8,8,8h448c4.424,0,8-3.576,8-8
			C464,337.944,446.056,320,424,320z M80.208,288C84.384,207.888,150.872,144,232,144s147.616,63.888,151.792,144H80.208z
			 M17.368,352c3.304-9.312,12.2-16,22.632-16h384c10.432,0,19.328,6.688,22.632,16H17.368z"/>
	</g>
</g>
<g>
</g>
<g>
</g>
<g>
</g>
<g>
</g>
<g>
</g>
<g>
</g>
<g>
</g>
<g>
</g>
<g>
</g>
<g>
</g>
<g>
</g>
<g>
</g>
<g>
</g>
<g>
</g>
<g>
</g>
</svg>
