<svg height="512" viewBox="0 0 16 16" width="512" xmlns="http://www.w3.org/2000/svg"><path d="m14 0h-12c-1.10303 0-2 .896973-2 2v.5c0 .276367.223633.5.5.5h15c.276367 0 .5-.223633.5-.5v-.5c0-1.10303-.896973-2-2-2zm-13 2c0-.55127.44873-1 1-1h12c.55127 0 1 .44873 1 1z" transform="translate(0 12)"/><path d="m.5 10h13c.276367 0 .5-.223633.5-.5v-.5c0-3.6911-2.8736-6.71649-6.5-6.97467v-1.52533c0-.276367-.223633-.5-.5-.5s-.5.223633-.5.5v1.52533c-3.6264.258179-6.5 3.28357-6.5 6.97467v.5c0 .276367.223633.5.5.5zm6.5-7c3.30859 0 6 2.69141 6 6h-12c0-3.30859 2.69141-6 6-6z" transform="translate(1 1)"/></svg>