<svg id="_x31__x2C_5" enable-background="new 0 0 24 24" height="512" viewBox="0 0 24 24" width="512" xmlns="http://www.w3.org/2000/svg"><path d="m17.5 13c-3.584 0-6.5-2.916-6.5-6.5s2.916-6.5 6.5-6.5 6.5 2.916 6.5 6.5-2.916 6.5-6.5 6.5zm0-11.5c-2.757 0-5 2.243-5 5s2.243 5 5 5 5-2.243 5-5-2.243-5-5-5z"/><path d="m15 1.02h1.5v10.96h-1.5z"/><path d="m18.5 1.02h1.5v10.96h-1.5z"/><path d="m12.02 4h10.961v1.5h-10.961z"/><path d="m12.02 7.5h10.961v1.5h-10.961z"/><path d="m21.25 24h-18.5c-1.517 0-2.75-1.233-2.75-2.75v-16.5c0-1.517 1.233-2.75 2.75-2.75h6.85c.414 0 .75.336.75.75s-.336.75-.75.75h-6.85c-.689 0-1.25.561-1.25 1.25v16.5c0 .689.561 1.25 1.25 1.25h18.5c.689 0 1.25-.561 1.25-1.25v-8.18c0-.414.336-.75.75-.75s.75.336.75.75v8.18c0 1.517-1.233 2.75-2.75 2.75z"/><path d="m8.76 7h-8.01c-.414 0-.75-.336-.75-.75s.336-.75.75-.75h8.01c.414 0 .75.336.75.75s-.336.75-.75.75z"/><path d="m13.75 19.5c-.173 0-.347-.06-.488-.181-.314-.27-.351-.743-.081-1.058l1.081-1.261-1.081-1.262c-.27-.314-.233-.788.081-1.058.314-.269.787-.233 1.058.081l1.5 1.75c.241.281.241.695 0 .977l-1.5 1.75c-.149.173-.359.262-.57.262z"/><path d="m7.25 19.5c-.211 0-.421-.089-.569-.262l-1.5-1.75c-.241-.281-.241-.695 0-.977l1.5-1.75c.271-.314.744-.35 1.058-.081.314.27.351.743.081 1.058l-1.082 1.262 1.081 1.262c.27.314.233.788-.081 1.058-.141.12-.315.18-.488.18z"/><path d="m9.751 21c-.057 0-.113-.006-.17-.02-.403-.093-.655-.495-.562-.899l1.5-6.5c.094-.404.5-.657.899-.562.403.093.655.495.562.899l-1.5 6.5c-.08.348-.388.582-.729.582z"/></svg>